<svg width="44" height="45" viewBox="0 0 44 45" fill="none" xmlns="http://www.w3.org/2000/svg">
<path d="M1 33.1905C1 25.2744 7.41725 18.8571 15.3333 18.8571V18.8571C23.2494 18.8571 29.6667 25.2744 29.6667 33.1905V39C29.6667 41.7614 27.4281 44 24.6667 44H6C3.23857 44 1 41.7614 1 39V33.1905Z" stroke="#D9D9D9" stroke-width="2"/>
<path d="M23.2917 9.42857C23.2917 14.0858 19.5258 17.8571 14.8854 17.8571C10.245 17.8571 6.47919 14.0858 6.47919 9.42857C6.47919 4.77136 10.245 1 14.8854 1C19.5258 1 23.2917 4.77136 23.2917 9.42857Z" stroke="#D9D9D9" stroke-width="2"/>
<path d="M43 35.4694C43 39.1347 40.0363 42.102 36.3854 42.102C32.7345 42.102 29.7708 39.1347 29.7708 35.4694C29.7708 31.804 32.7345 28.8367 36.3854 28.8367C40.0363 28.8367 43 31.804 43 35.4694Z" stroke="#D9D9D9" stroke-width="2"/>
<line x1="36.4896" y1="33.3265" x2="36.4896" y2="38.5102" stroke="#D9D9D9" stroke-width="2" stroke-linecap="round"/>
<line x1="33.8021" y1="35.8163" x2="38.9687" y2="35.8163" stroke="#D9D9D9" stroke-width="2" stroke-linecap="round"/>
</svg>
