<svg width="42" height="46" viewBox="0 0 42 46" fill="none" xmlns="http://www.w3.org/2000/svg">
<path d="M16.3055 32.1383C16.3055 25.3191 21.8335 19.791 28.6527 19.791V19.791C35.472 19.791 41 25.3191 41 32.1383V36.3987C41 39.1601 38.7614 41.3987 36 41.3987H21.3055C18.5441 41.3987 16.3055 39.1601 16.3055 36.3987V32.1383Z" fill="#04D704" stroke="#D9D9D9" stroke-width="2"/>
<path d="M35.3698 11.6881C35.3698 15.6109 32.1897 18.791 28.2669 18.791C24.3441 18.791 21.164 15.6109 21.164 11.6881C21.164 7.76528 24.3441 4.58521 28.2669 4.58521C32.1897 4.58521 35.3698 7.76528 35.3698 11.6881Z" fill="#04D704" stroke="#D9D9D9" stroke-width="2"/>
<path d="M1 34.1962C1 26.2404 7.4494 19.791 15.4051 19.791V19.791C23.3609 19.791 29.8103 26.2404 29.8103 34.1961V40C29.8103 42.7614 27.5717 45 24.8103 45H6C3.23857 45 1 42.7614 1 40V34.1962Z" fill="#04D704" stroke="#D9D9D9" stroke-width="2"/>
<path d="M23.4083 10.3376C23.4083 15.0063 19.6236 18.791 14.955 18.791C10.2863 18.791 6.50159 15.0063 6.50159 10.3376C6.50159 5.66895 10.2863 1.88425 14.955 1.88425C19.6236 1.88425 23.4083 5.66895 23.4083 10.3376Z" fill="#04D704" stroke="#D9D9D9" stroke-width="2"/>
</svg>
