<svg width="37" height="29" viewBox="0 0 37 29" fill="none" xmlns="http://www.w3.org/2000/svg">
<path d="M33.5 9.26133C37.0021 10.3007 34.5729 24.2913 31 26.1909C27.4271 28.0905 12.2373 26.9383 12.5 25.8175L12.3663 9.49105C12.3663 9.49105 17 2 17.5 1.5C18 1 20.5 0.500019 21 2.50001C21.5 4.49999 21.8476 8.48212 22.1738 9.49105C22.5 10.5 29.9979 8.22196 33.5 9.26133Z" stroke="black" stroke-width="2"/>
<path d="M1.5 26.8175C1.5066 25.8701 1.5 9.49998 1.5 9.49998C1.5 9.10318 9 9.85734 9 9.85734L9.00002 26C8.99378 26.521 1.49341 27.7648 1.5 26.8175Z" stroke="black" stroke-width="2"/>
</svg>
